:SAMPLES-PER-SECOND 30
:FULLY-SPECIFIED
:DEGREES
208
root  -3.5512 18.8759 55.5265 -121.99 -0.335541 -176.436
RightUpLeg  -77.1186 -3.70801 17.862
RightLeg  121.569 27.4099 -17.0231
RightFoot  -15.6029 0.120512 3.27643
RightToes  -5.82073e-011 -3.18055e-015 -2.98177e-016
Spine  31.7514 -2.44416 13.7593
Spine1  -6.54272 0.804582 0.143519
HEad  -21.6217 2.56954 2.46891
LeftShoulder1  -3.88251e-019 9.70628e-020 -3.87848e-018
LeftArm  -0.334264 -24.682 -67.1101
LeftForeArm  1.1867 -12.1463 -4.6782
LeftHand  -9.11731 -9.04927 67.0108
RightShoulder  7.46064 11.0364 34.0963
RightArm  3.01024 9.46115 53.6894
RightForeArm  20.0088 8.51325 -3.46926
RightHand  -13.2834 10.5982 -80.1145
LeftUpLeg  -34.772 -1.25541 -2.51086
LeftLeg  82.073 -12.2168 21.8925
LeftFoot  -18.5735 -0.943451 -18.4951
LeftToes  -2.27483e-011 -5.53417e-011 9.36564e-012
209
root  -3.36032 18.8001 54.7118 -121.412 -0.355896 -172.686
RightUpLeg  -74.5997 -1.12368 19.6458
RightLeg  120.122 25.9333 -15.8266
RightFoot  -13.8687 0.0526649 2.25587
RightToes  -5.82073e-011 -3.18055e-015 -2.98177e-016
Spine  31.973 -1.34781 15.6008
Spine1  -6.81266 3.04468 -3.69478
HEad  -22.153 1.02944 1.48099
LeftShoulder1  -3.88251e-019 9.70628e-020 -3.87848e-018
LeftArm  0.915145 -25.0468 -68.8531
LeftForeArm  2.72315 -11.0537 -5.58918
LeftHand  -9.82527 -9.59167 68.9766
RightShoulder  7.82131 11.0919 35.7573
RightArm  2.65085 7.1778 51.388
RightForeArm  18.9822 9.65399 -3.52368
RightHand  -12.6804 10.403 -78.1466
LeftUpLeg  -32.8908 2.52567 0.534704
LeftLeg  80.1921 -11.605 20.241
LeftFoot  -18.1407 -0.93317 -19.8597
LeftToes  -2.27483e-011 -5.53417e-011 9.36564e-012
210
root  -3.08548 18.6641 53.9141 -122.046 0.143311 -170.865
RightUpLeg  -70.4568 -0.497251 19.8856
RightLeg  119.29 24.4412 -14.1243
RightFoot  -14.501 0.079175 3.00606
RightToes  -5.82073e-011 -3.18055e-015 -2.98177e-016
Spine  32.9637 -0.638994 14.9978
Spine1  -7.42457 4.2335 -6.11394
HEad  -22.3549 -0.296843 0.120347
LeftShoulder1  -3.88251e-019 9.70628e-020 -3.87848e-018
LeftArm  0.252675 -24.6094 -70.2835
LeftForeArm  6.22337 -9.62593 -6.12866
LeftHand  -10.5285 -10.1546 70.6681
RightShoulder  8.27082 11.1321 37.8526
RightArm  4.12309 3.95121 48.4985
RightForeArm  16.9192 13.0297 -4.08318
RightHand  -11.7028 10.3631 -73.799
LeftUpLeg  -30.077 5.03491 2.25291
LeftLeg  78.8937 -11.3239 18.3439
LeftFoot  -16.5275 -0.670123 -20.6121
LeftToes  -2.27483e-011 -5.53417e-011 9.36564e-012
211
root  -2.69963 18.6354 53.2299 -122.397 0.412064 -170.686
RightUpLeg  -66.9355 -0.585122 19.7542
RightLeg  118.066 23.2564 -12.903
RightFoot  -15.9464 0.136797 3.72582
RightToes  -5.82073e-011 -3.18055e-015 -2.98177e-016
Spine  33.1488 -0.313006 12.9901
Spine1  -7.84913 4.30171 -7.64121
HEad  -22.4437 -1.13753 -0.702697
LeftShoulder1  -3.88251e-019 9.70628e-020 -3.87848e-018
LeftArm  -0.112599 -23.7924 -70.7323
LeftForeArm  9.34186 -8.80403 -6.31429
LeftHand  -11.1038 -10.725 71.5506
RightShoulder  8.52507 11.151 39.0281
RightArm  7.73527 0.0367033 47.1057
RightForeArm  12.0022 16.7835 -6.3178
RightHand  -10.9064 10.5031 -69.4899
LeftUpLeg  -29.4517 6.19385 3.40434
LeftLeg  79.4313 -11.6595 16.4667
LeftFoot  -12.2463 0.116554 -20.4683
LeftToes  -2.27483e-011 -5.53417e-011 9.36564e-012
212
root  -2.3139 18.7866 52.651 -121.865 -0.21373 -171.071
RightUpLeg  -64.962 -0.458451 20.177
RightLeg  115.984 22.3272 -12.3135
RightFoot  -16.2489 0.145645 3.61288
RightToes  -5.82073e-011 -3.18055e-015 -2.98177e-016
Spine  32.5977 -0.554358 11.5124
Spine1  -8.25828 3.63217 -8.818
HEad  -22.9007 -1.55955 -1.05531
LeftShoulder1  -3.88251e-019 9.70628e-020 -3.87848e-018
LeftArm  1.53161 -23.4246 -69.4404
LeftForeArm  9.73423 -9.02475 -6.8649
LeftHand  -11.5202 -11.1772 72.0093
RightShoulder  8.45111 11.1568 38.6604
RightArm  10.2903 -3.16656 47.8986
RightForeArm  7.14559 19.654 -9.69196
RightHand  -10.6436 10.6775 -67.5911
LeftUpLeg  -32.1291 6.32177 4.76856
LeftLeg  82.077 -12.4698 14.9707
LeftFoot  -6.67508 1.13757 -20.307
LeftToes  -2.27483e-011 -5.53417e-011 9.36564e-012
213
root  -2.01663 19.0028 52.1328 -121.023 -1.61647 -172.288
RightUpLeg  -63.7506 -1.02345 20.5151
RightLeg  113.783 21.3536 -11.5419
RightFoot  -16.3776 0.150928 3.62841
RightToes  -5.82073e-011 -3.18055e-015 -2.98177e-016
Spine  33.1135 -0.687319 10.1416
Spine1  -10.9639 2.73767 -8.12295
HEad  -22.6821 -2.81572 -1.93892
LeftShoulder1  -3.88251e-019 9.70628e-020 -3.87848e-018
LeftArm  1.42791 -22.9018 -68.4613
LeftForeArm  11.2728 -9.03077 -8.37204
LeftHand  -11.7919 -11.3878 72.5794
RightShoulder  8.62953 11.1467 39.5344
RightArm  13.1075 -3.9241 45.851
RightForeArm  3.77502 22.9707 -12.6288
RightHand  -10.7192 10.7887 -67.6002
LeftUpLeg  -36.6893 5.21674 5.81464
LeftLeg  85.9539 -13.4318 14.5944
LeftFoot  -3.8037 1.66689 -20.4408
LeftToes  -2.27483e-011 -5.53417e-011 9.36564e-012
214
root  -1.74679 19.1788 51.6675 -120.599 -2.87024 -174.554
RightUpLeg  -62.275 -2.68827 20.0765
RightLeg  112.022 20.4065 -10.439
RightFoot  -17.5189 0.213621 4.21297
RightToes  -5.82073e-011 -3.18055e-015 -2.98177e-016
Spine  33.3492 -1.68743 8.96145
Spine1  -11.8131 1.23815 -8.26408
HEad  -23.3755 -3.7225 -1.91136
LeftShoulder1  -3.88251e-019 9.70628e-020 -3.87848e-018
LeftArm  0.822406 -22.8648 -68.3433
LeftForeArm  13.3922 -8.77437 -8.52908
LeftHand  -11.8363 -11.3295 72.9824
RightShoulder  8.31003 11.104 38.1019
RightArm  9.21838 -2.99214 46.7996
RightForeArm  6.49694 25.9372 -14.2137
RightHand  -10.7198 10.9359 -67.1241
LeftUpLeg  -41.272 3.59235 5.81918
LeftLeg  90.2637 -14.5861 15.6977
LeftFoot  -4.96681 1.35014 -18.9604
LeftToes  -2.27483e-011 -5.53417e-011 9.36564e-012
215
root  -1.4694 19.3223 51.2792 -120.644 -3.69128 -177.493
RightUpLeg  -60.5772 -5.13442 19.0855
RightLeg  110.668 19.719 -9.52995
RightFoot  -19.0218 0.300415 4.74835
RightToes  -5.82073e-011 -3.18055e-015 -2.98177e-016
Spine  34.4 -2.54758 6.87485
Spine1  -12.8886 -0.362007 -7.83019
HEad  -23.7516 -4.69286 -1.65078
LeftShoulder1  -3.88251e-019 9.70628e-020 -3.87848e-018
LeftArm  1.68626 -22.0012 -68.9574
LeftForeArm  14.0324 -9.42857 -7.87665
LeftHand  -11.7643 -11.1826 73.1445
RightShoulder  7.73546 10.9886 35.5591
RightArm  5.33473 -0.973036 47.957
RightForeArm  8.67364 28.5479 -15.7222
RightHand  -10.2797 10.9391 -64.8961
LeftUpLeg  -45.7173 1.84674 4.91474
LeftLeg  95.2809 -16.3156 17.74
LeftFoot  -9.47258 0.557409 -18.2172
LeftToes  -2.27483e-011 -5.53417e-011 9.36564e-012
